<svg width="20" height="20" viewBox="0 0 20 20" fill="none" xmlns="http://www.w3.org/2000/svg">
<path fill-rule="evenodd" clip-rule="evenodd" d="M18.3136 0.994629C18.6001 0.994629 18.8456 1.09693 19.0502 1.30155C19.2548 1.50616 19.3571 1.7517 19.3571 2.03816V18.8082C19.3571 19.0947 19.2548 19.3402 19.0502 19.5449C18.8456 19.7495 18.6001 19.8518 18.3136 19.8518H13.5134V12.5471H15.9565L16.3248 9.69887H13.5134V7.88191C13.5134 7.42357 13.6096 7.07982 13.8019 6.85066C13.9942 6.62149 14.3687 6.50691 14.9252 6.50691L16.423 6.49463V3.95333C15.9074 3.87967 15.1789 3.84284 14.2377 3.84284C13.1246 3.84284 12.2346 4.17022 11.5675 4.82499C10.9005 5.47975 10.567 6.40459 10.567 7.59954V9.69887H8.11161V12.5471H10.567V19.8518H1.54353C1.25707 19.8518 1.01153 19.7495 0.80692 19.5449C0.602306 19.3402 0.5 19.0947 0.5 18.8082V2.03816C0.5 1.7517 0.602306 1.50616 0.80692 1.30155C1.01153 1.09693 1.25707 0.994629 1.54353 0.994629H18.3136Z" fill="black"/>
</svg>
