<svg width="20" height="20" viewBox="0 0 20 20" fill="none" xmlns="http://www.w3.org/2000/svg">
<path fill-rule="evenodd" clip-rule="evenodd" d="M3.13933 16.4413H5.97527V7.92118H3.13933V16.4413ZM6.15942 5.29395C6.15124 4.86835 6.00392 4.51642 5.71746 4.23814C5.431 3.95987 5.05042 3.82073 4.57572 3.82073C4.10101 3.82073 3.7143 3.95987 3.41556 4.23814C3.11683 4.51642 2.96746 4.86835 2.96746 5.29395C2.96746 5.71136 3.11273 6.06124 3.40329 6.34361C3.69384 6.62598 4.07237 6.76716 4.53889 6.76716H4.55116C5.03405 6.76716 5.42282 6.62598 5.71746 6.34361C6.0121 6.06124 6.15942 5.71136 6.15942 5.29395ZM10.3704 9.12228V9.16113H10.3458C10.3539 9.14809 10.3621 9.13514 10.3704 9.12228ZM10.3704 9.12228V7.92118H7.53442C7.55898 8.46136 7.55898 11.3014 7.53442 16.4413H10.3704V11.6779C10.3704 11.3669 10.399 11.1377 10.4563 10.9904C10.5791 10.7039 10.7632 10.4604 11.0088 10.2599C11.2543 10.0594 11.5571 9.95912 11.9172 9.95912C12.8666 9.95912 13.3413 10.6016 13.3413 11.8866V16.4413H16.1773V11.5551C16.1773 10.2947 15.8785 9.3412 15.2811 8.69462C14.6836 8.04803 13.8938 7.72475 12.9117 7.72475C11.8137 7.72475 10.9666 8.19059 10.3704 9.12228ZM19.0869 4.18903V15.9747C19.0869 16.9487 18.7411 17.7815 18.0495 18.4731C17.3579 19.1647 16.5251 19.5105 15.5512 19.5105H3.76545C2.79149 19.5105 1.95872 19.1647 1.26712 18.4731C0.575529 17.7815 0.229736 16.9487 0.229736 15.9747V4.18903C0.229736 3.21507 0.575529 2.3823 1.26712 1.69071C1.95872 0.999113 2.79149 0.65332 3.76545 0.65332H15.5512C16.5251 0.65332 17.3579 0.999113 18.0495 1.69071C18.7411 2.3823 19.0869 3.21507 19.0869 4.18903Z" fill="black"/>
</svg>
