<svg width="20" height="20" viewBox="0 0 20 20" fill="none" xmlns="http://www.w3.org/2000/svg">
<path fill-rule="evenodd" clip-rule="evenodd" d="M16.1242 6.91204C15.6659 7.11665 15.1707 7.25579 14.6387 7.32945C15.1953 7.00207 15.5758 6.52328 15.7804 5.89307C15.2485 6.20408 14.7001 6.41278 14.1354 6.51918C13.6361 5.979 13.01 5.70891 12.257 5.70891C11.545 5.70891 10.9373 5.96059 10.4339 6.46394C9.93056 6.96729 9.67889 7.57498 9.67889 8.28704C9.67889 8.52439 9.69935 8.72082 9.74027 8.87633C8.68446 8.81903 7.69414 8.55304 6.76929 8.07833C5.84443 7.60363 5.05872 6.96934 4.41214 6.17543C4.17479 6.58466 4.05612 7.01844 4.05612 7.47677C4.05612 8.40981 4.42851 9.12595 5.17331 9.62521C4.78863 9.61702 4.37941 9.51063 3.94563 9.30601V9.33057C3.94563 9.94441 4.15024 10.4907 4.55947 10.9695C4.96869 11.4483 5.47204 11.745 6.06951 11.8596C5.83216 11.9251 5.62345 11.9578 5.44339 11.9578C5.33699 11.9578 5.1774 11.9414 4.9646 11.9087C5.13648 12.4243 5.44135 12.8499 5.87922 13.1855C6.31709 13.521 6.8143 13.6929 7.37085 13.7011C6.42144 14.4377 5.35337 14.806 4.16661 14.806C3.95381 14.806 3.7492 14.7937 3.55277 14.7692C4.76408 15.5385 6.08178 15.9232 7.50589 15.9232C8.42257 15.9232 9.28193 15.7779 10.084 15.4874C10.8861 15.1968 11.5736 14.8081 12.1465 14.3211C12.7194 13.8341 13.2126 13.2735 13.6259 12.6392C14.0392 12.0049 14.3461 11.3419 14.5466 10.6503C14.7472 9.95872 14.8474 9.26919 14.8474 8.58168C14.8474 8.43436 14.8433 8.32387 14.8351 8.25021C15.3508 7.8819 15.7804 7.43585 16.1242 6.91204ZM19.2671 4.53034V16.3161C19.2671 17.29 18.9213 18.1228 18.2297 18.8144C17.5381 19.506 16.7053 19.8518 15.7313 19.8518H3.94563C2.97166 19.8518 2.1389 19.506 1.4473 18.8144C0.755705 18.1228 0.409912 17.29 0.409912 16.3161V4.53034C0.409912 3.55638 0.755705 2.72361 1.4473 2.03202C2.1389 1.34042 2.97166 0.994629 3.94563 0.994629H15.7313C16.7053 0.994629 17.5381 1.34042 18.2297 2.03202C18.9213 2.72361 19.2671 3.55638 19.2671 4.53034Z" fill="black"/>
</svg>
