<svg width="19" height="23" viewBox="0 0 19 23" fill="none" xmlns="http://www.w3.org/2000/svg">
<path fill-rule="evenodd" clip-rule="evenodd" d="M11.8221 16.0128V18.6032C11.8221 19.1516 11.6625 19.4257 11.3433 19.4257C11.155 19.4257 10.9709 19.3357 10.7908 19.1557V15.4603C10.9709 15.2803 11.155 15.1903 11.3433 15.1903C11.6625 15.1903 11.8221 15.4644 11.8221 16.0128ZM15.9716 16.0251V16.5898H14.8667V16.0251C14.8667 15.4685 15.0509 15.1903 15.4192 15.1903C15.7875 15.1903 15.9716 15.4685 15.9716 16.0251ZM4.11225 13.3487H5.42587V12.1947H1.59551V13.3487H2.88457V20.3342H4.11225V13.3487ZM7.64797 20.3342H8.7406V14.2695H7.64797V18.9101C7.40243 19.2539 7.16917 19.4257 6.94819 19.4257C6.80087 19.4257 6.71493 19.3398 6.69038 19.1679C6.68219 19.1434 6.6781 19.0002 6.6781 18.7382V14.2695H5.58547V19.0697C5.58547 19.4708 5.6182 19.7695 5.68368 19.9659C5.7819 20.2688 6.01924 20.4202 6.39573 20.4202C6.78859 20.4202 7.206 20.1705 7.64797 19.6713V20.3342ZM12.9147 18.5173V16.0987C12.9147 15.5013 12.8779 15.0961 12.8042 14.8833C12.6651 14.425 12.3745 14.1958 11.9326 14.1958C11.5233 14.1958 11.1428 14.4168 10.7908 14.8588V12.1947H9.69819V20.3342H10.7908V19.7449C11.1591 20.1951 11.5397 20.4202 11.9326 20.4202C12.3745 20.4202 12.6651 20.1951 12.8042 19.7449C12.8779 19.524 12.9147 19.1147 12.9147 18.5173ZM17.0643 18.3945V18.2349H15.9471C15.9471 18.6523 15.9389 18.9019 15.9225 18.9838C15.8652 19.2784 15.7015 19.4257 15.4314 19.4257C15.055 19.4257 14.8667 19.1434 14.8667 18.5786V17.5106H17.0643V16.2461C17.0643 15.5995 16.9538 15.1248 16.7328 14.822C16.4136 14.4045 15.9798 14.1958 15.4314 14.1958C14.8749 14.1958 14.437 14.4045 14.1178 14.822C13.8887 15.1248 13.7741 15.5995 13.7741 16.2461V18.3699C13.7741 19.0165 13.8928 19.4912 14.1301 19.7941C14.4493 20.2115 14.8913 20.4202 15.456 20.4202C16.0453 20.4202 16.4873 20.2033 16.7819 19.7695C16.9292 19.5485 17.0152 19.3275 17.0397 19.1066C17.0561 19.0329 17.0643 18.7955 17.0643 18.3945ZM9.59998 7.18579V4.60767C9.59998 4.04293 9.42401 3.76057 9.07207 3.76057C8.72014 3.76057 8.54417 4.04293 8.54417 4.60767V7.18579C8.54417 7.75871 8.72014 8.04517 9.07207 8.04517C9.42401 8.04517 9.59998 7.75871 9.59998 7.18579ZM18.427 16.4057C18.427 18.3208 18.3206 19.7531 18.1078 20.7025C17.9932 21.1854 17.7559 21.5906 17.3957 21.9179C17.0356 22.2453 16.6182 22.4336 16.1435 22.4827C14.6375 22.6545 12.3664 22.7405 9.32989 22.7405C6.29341 22.7405 4.02223 22.6545 2.51627 22.4827C2.04157 22.4336 1.62211 22.2453 1.2579 21.9179C0.893687 21.5906 0.658384 21.1854 0.551985 20.7025C0.339186 19.7859 0.232788 18.3536 0.232788 16.4057C0.232788 14.4905 0.339186 13.0582 0.551985 12.1088C0.666568 11.6259 0.903917 11.2208 1.26404 10.8934C1.62416 10.566 2.04566 10.3737 2.52855 10.3164C4.02632 10.1527 6.29341 10.0708 9.32989 10.0708C12.3664 10.0708 14.6375 10.1527 16.1435 10.3164C16.6182 10.3737 17.0377 10.566 17.4019 10.8934C17.7661 11.2208 18.0014 11.6259 18.1078 12.1088C18.3206 13.0255 18.427 14.4577 18.427 16.4057ZM6.17475 0.740479H7.42698L5.94149 5.63892V8.96593H4.71381V5.63892C4.59923 5.03326 4.34961 4.16571 3.96493 3.03624C3.6621 2.19323 3.39611 1.42798 3.16694 0.740479H4.46828L5.33993 3.96927L6.17475 0.740479ZM10.7172 4.82865V6.97709C10.7172 7.64004 10.6026 8.12292 10.3734 8.42575C10.0624 8.84316 9.62862 9.05186 9.07207 9.05186C8.52371 9.05186 8.09402 8.84316 7.78301 8.42575C7.55384 8.11473 7.43926 7.63185 7.43926 6.97709V4.82865C7.43926 4.17388 7.55384 3.69509 7.78301 3.39226C8.09402 2.97485 8.52371 2.76615 9.07207 2.76615C9.62862 2.76615 10.0624 2.97485 10.3734 3.39226C10.6026 3.69509 10.7172 4.17388 10.7172 4.82865ZM14.8299 2.83981V8.96593H13.7127V8.2907C13.2789 8.79815 12.8574 9.05186 12.4482 9.05186C12.0717 9.05186 11.8303 8.90045 11.7239 8.59762C11.6584 8.40119 11.6256 8.09428 11.6256 7.67686V2.83981H12.7428V7.34539C12.7428 7.61548 12.7469 7.75871 12.7551 7.77508C12.7797 7.95514 12.8656 8.04517 13.0129 8.04517C13.2339 8.04517 13.4672 7.8692 13.7127 7.51726V2.83981H14.8299Z" fill="black"/>
</svg>
